<?xml version="1.0" encoding="UTF-8" standalone="no"?>
<svg xmlns="http://www.w3.org/2000/svg" xmlns:xlink="http://www.w3.org/1999/xlink" height="664" version="1.1" viewBox="0 0 1081 664" width="1081">
  <defs>
    <linearGradient id="g1" x1="0%" x2="0%" y1="0%" y2="100%">
      <stop offset="0%" style="stop-color:#FFFFFF"/>
      <stop offset="100%" style="stop-color:#cfcfcf"/>
    </linearGradient>
  </defs>
  <rect fill="none" height="200" id="_35" stroke="#000000" stroke-width="1.0" width="1078" x="1" y="0"/>
  <text fill="#000000" font-decoration="none" font-family="Arial,Helvetica" font-size="14" font-weight="bold" text-anchor="middle" transform="rotate(270 17.0 100.0)" x="17" y="103">App Store</text>
  <g id="_37">
    <rect fill="url(#g1)" height="60" rx="8.25" ry="8.25" stroke="#000000" stroke-width="1.0" width="120" x="221" y="30"/>
  </g>
  <text fill="#000000" font-decoration="none" font-family="Arial,Helvetica" font-size="11" font-weight="normal" text-anchor="middle" x="280" y="52">Provide Search</text>
  <text fill="#000000" font-decoration="none" font-family="Arial,Helvetica" font-size="11" font-weight="normal" text-anchor="middle" x="280" y="63">Interface for Data</text>
  <text fill="#000000" font-decoration="none" font-family="Arial,Helvetica" font-size="11" font-weight="normal" text-anchor="middle" x="280" y="74">Apps</text>
  <g id="_38">
    <path d=" M 81 36.0 C 81 28.0 116 28.0 116 36.0 L 116 54.0 C 116 62.0 81 62.0 81 54.0 Z" fill="url(#g1)" stroke="#000000" stroke-width="1.0"/>
    <path d="M 81 36.0 C 81 42.0 116 42.0 116 36.0 M 81 39.0 C 81 45.0 116 45.0 116 39.0 M 81 42.0 C 81 48.0 116 48.0 116 42.0" fill="none" stroke="#000000" stroke-width="1.0"/>
  </g>
  <text fill="#000000" font-decoration="none" font-family="Arial,Helvetica" font-size="11" font-weight="normal" text-anchor="middle" x="98" y="75">AppStore Data</text>
  <text fill="#000000" font-decoration="none" font-family="Arial,Helvetica" font-size="11" font-weight="normal" text-anchor="middle" x="98" y="86">Store</text>
  <g id="_54">
    <rect fill="url(#g1)" height="57" rx="8.25" ry="8.25" stroke="#000000" stroke-width="1.0" width="106" x="356" y="115"/>
  </g>
  <text fill="#000000" font-decoration="none" font-family="Arial,Helvetica" font-size="11" font-weight="normal" text-anchor="middle" x="409" y="136">Offer Contract</text>
  <text fill="#000000" font-decoration="none" font-family="Arial,Helvetica" font-size="11" font-weight="normal" text-anchor="middle" x="409" y="147">Details of Data</text>
  <text fill="#000000" font-decoration="none" font-family="Arial,Helvetica" font-size="11" font-weight="normal" text-anchor="middle" x="409" y="158">App</text>
  <g id="_39">
    <path d="M 208.5 66.5 L 218.5 60.5 L 208.5 54.5 M 220.5 60.5" fill="none" stroke="#000000" stroke-width="1.0"/>
    <path d="M 116.0 45.5 L 158.5 45.5 Q 168.5 45.5 168.5 53.0 L 168.5 56.75 Q 168.5 60.5 178.5 60.5 L 221.0 60.5" fill="none" stroke="#000000" stroke-dasharray="3, 3" stroke-width="1.0"/>
  </g>
  <rect fill="none" height="200" id="_40" stroke="#000000" stroke-width="1.0" width="1078" x="1" y="461"/>
  <text fill="#000000" font-decoration="none" font-family="Arial,Helvetica" font-size="14" font-weight="bold" text-anchor="middle" transform="rotate(270 17.0 561.0)" x="17" y="564">Provider</text>
  <g id="_41">
    <rect fill="url(#g1)" height="55" rx="8.25" ry="8.25" stroke="#000000" stroke-width="1.0" width="85" x="231" y="531"/>
  </g>
  <text fill="#000000" font-decoration="none" font-family="Arial,Helvetica" font-size="11" font-weight="normal" text-anchor="middle" x="273" y="556">Search for</text>
  <text fill="#000000" font-decoration="none" font-family="Arial,Helvetica" font-size="11" font-weight="normal" text-anchor="middle" x="273" y="567">Data Apps</text>
  <g id="_52">
    <rect fill="url(#g1)" height="55" rx="8.25" ry="8.25" stroke="#000000" stroke-width="1.0" width="85" x="363" y="529"/>
  </g>
  <text fill="#000000" font-decoration="none" font-family="Arial,Helvetica" font-size="11" font-weight="normal" text-anchor="middle" x="405" y="555">Request Data</text>
  <text fill="#000000" font-decoration="none" font-family="Arial,Helvetica" font-size="11" font-weight="normal" text-anchor="middle" x="405" y="566">App</text>
  <g id="_56">
    <rect fill="url(#g1)" height="55" rx="8.25" ry="8.25" stroke="#000000" stroke-width="1.0" width="101" x="501" y="529"/>
  </g>
  <text fill="#000000" font-decoration="none" font-family="Arial,Helvetica" font-size="11" font-weight="normal" text-anchor="middle" x="551" y="554">Agree with</text>
  <text fill="#000000" font-decoration="none" font-family="Arial,Helvetica" font-size="11" font-weight="normal" text-anchor="middle" x="551" y="565">Contract</text>
  <g id="_53">
    <path d="M 363.5 557.4473684210527 L 353.5 562.4473684210527 L 356.0 557.4473684210527 L 353.5 552.4473684210527 z" fill="#000000" stroke="#000000" stroke-width="1.0"/>
    <path d="M 316.5 559.0 L 329.88157894736844 559.0 Q 339.88157894736844 559.0 339.88157894736844 558.2236842105264 L 339.88157894736844 557.8355263157896 Q 339.88157894736844 557.4473684210527 349.88157894736844 557.4473684210527 L 364.0 557.4473684210527" fill="none" stroke="#000000" stroke-width="1.0"/>
  </g>
  <rect fill="none" height="200" id="_45" stroke="#000000" stroke-width="1.0" width="1078" x="1" y="229"/>
  <text fill="#000000" font-decoration="none" font-family="Arial,Helvetica" font-size="14" font-weight="bold" text-anchor="middle" transform="rotate(270 17.0 329.0)" x="17" y="332">App Developer</text>
  <g id="_60">
    <rect fill="url(#g1)" height="55" rx="8.25" ry="8.25" stroke="#000000" stroke-width="1.0" width="85" x="66" y="311"/>
  </g>
  <text fill="#000000" font-decoration="none" font-family="Arial,Helvetica" font-size="11" font-weight="normal" text-anchor="middle" x="108" y="331">Publish Data</text>
  <text fill="#000000" font-decoration="none" font-family="Arial,Helvetica" font-size="11" font-weight="normal" text-anchor="middle" x="108" y="342">App in App</text>
  <text fill="#000000" font-decoration="none" font-family="Arial,Helvetica" font-size="11" font-weight="normal" text-anchor="middle" x="108" y="353">Store</text>
  <g id="_59">
    <path d="M 500.5 557.0 L 490.5 562.0 L 493.0 557.0 L 490.5 552.0 z" fill="#000000" stroke="#000000" stroke-width="1.0"/>
    <path d="M 462.5 144.0 L 472.0 144.0 Q 481.5 144.0 481.5 154.0 L 481.5 547.0 Q 481.5 557.0 491.25 557.0 L 501.0 557.0" fill="none" stroke="#000000" stroke-width="1.0"/>
  </g>
  <g id="_55">
    <path d="M 406.2631578947368 173.5 L 411.2631578947368 183.5 L 406.2631578947368 181.0 L 401.2631578947368 183.5 z" fill="#000000" stroke="#000000" stroke-width="1.0"/>
    <path d="M 406.2631578947368 529.5 L 406.2631578947368 361.22368421052636 Q 406.2631578947368 351.22368421052636 406.2631578947368 341.22368421052636 L 406.2631578947368 173.0" fill="none" stroke="#000000" stroke-width="1.0"/>
  </g>
  <g id="_44">
    <path d="M 273.5 531.5 L 268.5 521.5 L 273.5 524.0 L 278.5 521.5 z" fill="#000000" stroke="#000000" stroke-width="1.0"/>
    <path d="M 273.5 91.5 L 273.5 301.0 Q 273.5 311.0 273.5 321.0 L 273.5 532.0" fill="none" stroke="#000000" stroke-width="1.0"/>
  </g>
  <g id="_61">
    <path d="M 104.5 73.5 L 98.5 63.5 L 92.5 73.5 M 98.5 61.5" fill="none" stroke="#000000" stroke-width="1.0"/>
    <path d="M 98.5 312.0 L 98.5 196.14473684210532 Q 98.5 186.14473684210532 98.5 176.14473684210532 L 98.5 61.0" fill="none" stroke="#000000" stroke-dasharray="3, 3" stroke-width="1.0"/>
  </g>
</svg>
